<?xml version="1.0" standalone="no"?>
<!DOCTYPE svg PUBLIC "-//W3C//DTD SVG 20010904//EN"
 "http://www.w3.org/TR/2001/REC-SVG-20010904/DTD/svg10.dtd">
<svg version="1.0" xmlns="http://www.w3.org/2000/svg"
 width="229.000000pt" height="263.000000pt" viewBox="0 0 229.000000 263.000000"
 preserveAspectRatio="xMidYMid meet">

<g transform="translate(0.000000,263.000000) scale(0.100000,-0.100000)"
fill="#000000" stroke="none">
<path d="M28 2599 c-10 -5 -18 -18 -18 -28 0 -26 330 -612 823 -1461 201 -346
281 -476 295 -478 13 -2 27 7 39 25 11 15 155 258 320 538 647 1100 785 1341
781 1368 -3 21 -10 22 -103 28 -187 12 -2119 19 -2137 8z m1034 -101 c-11 -18
-75 -130 -142 -248 -107 -187 -250 -434 -312 -538 l-20 -33 -45 78 c-94 164
-401 709 -417 741 l-17 32 487 0 486 0 -20 -32z m1106 18 c2 -3 -167 -298
-397 -693 -46 -79 -86 -143 -90 -143 -6 1 -74 117 -328 567 -84 150 -153 275
-153 279 0 6 961 -4 968 -10z m-1001 -78 l20 -43 -248 -435 c-137 -239 -252
-436 -257 -438 -4 -1 -18 17 -31 41 l-24 44 145 249 c80 137 194 333 252 437
59 103 111 187 115 187 4 0 16 -19 28 -42z m88 -158 l25 -48 -251 -439 c-138
-241 -251 -439 -253 -440 -1 -1 -16 22 -34 53 l-31 55 251 439 c138 242 255
437 259 434 5 -3 20 -27 34 -54z m90 -161 c14 -29 16 -45 9 -57 -6 -9 -118
-205 -249 -434 -131 -230 -241 -418 -244 -418 -4 0 -17 20 -31 44 -18 33 -21
49 -14 64 5 11 117 209 249 440 163 284 244 417 251 411 6 -5 19 -27 29 -50z
m83 -146 l31 -52 -250 -438 c-138 -241 -251 -439 -253 -440 -1 -1 -16 22 -34
53 l-31 55 251 440 c138 242 252 438 253 437 2 -2 17 -26 33 -55z m95 -163
l26 -46 -245 -429 c-135 -237 -249 -434 -253 -438 -10 -10 -63 78 -59 98 6 28
493 873 499 867 4 -4 18 -27 32 -52z m102 -181 l16 -36 -250 -424 c-137 -233
-253 -425 -258 -426 -8 -3 -53 74 -53 92 0 5 111 204 247 443 245 429 248 432
265 410 9 -13 24 -39 33 -59z"/>
<path d="M440 478 c0 -7 13 -62 28 -123 23 -90 32 -111 48 -113 16 -2 23 10
43 85 32 119 36 124 50 67 31 -126 42 -154 60 -154 15 0 25 23 50 121 18 66
30 123 27 126 -16 17 -34 -14 -51 -88 -10 -46 -21 -88 -25 -92 -4 -4 -18 34
-31 85 -20 74 -29 94 -45 96 -16 2 -23 -10 -43 -85 -13 -48 -27 -92 -31 -96
-4 -4 -15 34 -26 85 -15 70 -24 94 -37 96 -9 2 -17 -2 -17 -10z"/>
<path d="M790 365 c0 -118 1 -125 20 -125 19 0 20 7 20 125 0 118 -1 125 -20
125 -19 0 -20 -7 -20 -125z"/>
<path d="M880 366 c0 -105 2 -126 15 -126 12 0 15 17 15 97 0 112 -1 113 75
-9 35 -57 59 -84 73 -86 22 -3 22 -1 22 122 0 104 -3 126 -15 126 -11 0 -15
-20 -17 -100 l-3 -101 -60 98 c-43 70 -67 99 -83 101 -22 3 -22 2 -22 -122z"/>
<path d="M1164 456 c-41 -41 -49 -101 -22 -169 20 -52 108 -75 156 -41 22 15
24 15 37 -2 13 -17 14 -11 15 54 l0 72 -55 0 c-42 0 -55 -3 -55 -15 0 -11 11
-15 40 -15 33 0 40 -3 40 -20 0 -52 -84 -80 -129 -42 -24 19 -37 77 -27 117
17 65 95 88 140 40 24 -26 46 -33 46 -14 0 6 -13 24 -29 40 -24 24 -38 29 -76
29 -40 0 -52 -5 -81 -34z"/>
<path d="M1566 365 c-8 -118 -5 -135 20 -135 11 0 14 23 14 125 0 99 -3 125
-14 125 -10 0 -15 -28 -20 -115z"/>
<path d="M1632 468 c3 -7 23 -14 46 -16 l42 -3 0 -110 c0 -90 3 -109 15 -109
12 0 15 19 15 110 l0 110 45 0 c33 0 45 4 45 15 0 12 -18 15 -106 15 -80 0
-105 -3 -102 -12z"/>
<path d="M920 140 c0 -13 -5 -18 -15 -14 -21 9 -45 -14 -45 -42 0 -26 24 -44
51 -37 16 4 19 15 19 59 0 30 -2 54 -5 54 -3 0 -5 -9 -5 -20z m-2 -53 c4 -21
-27 -35 -38 -17 -12 19 0 42 19 38 9 -2 17 -11 19 -21z"/>
<path d="M1340 98 c0 -62 5 -60 13 5 4 28 3 47 -3 47 -6 0 -10 -23 -10 -52z"/>
<path d="M1378 133 c-2 -10 -1 -36 3 -58 l6 -40 2 35 c2 19 4 45 5 58 3 26
-10 30 -16 5z"/>
<path d="M953 90 c0 -25 2 -35 4 -22 2 12 2 32 0 45 -2 12 -4 2 -4 -23z"/>
<path d="M993 123 c-22 -8 -14 -33 12 -43 14 -5 25 -12 25 -16 0 -3 -11 -4
-25 -2 -14 3 -25 2 -25 -2 0 -12 28 -20 45 -14 23 9 18 33 -11 44 -14 6 -22
14 -19 20 4 7 13 7 26 0 11 -6 19 -7 19 -1 0 7 -26 23 -33 20 -1 0 -8 -3 -14
-6z"/>
<path d="M1066 114 c-20 -20 -20 -38 0 -58 12 -12 20 -13 35 -6 27 15 24 22
-6 14 -22 -5 -25 -3 -25 21 0 24 3 26 27 20 23 -5 25 -4 14 9 -17 20 -26 20
-45 0z"/>
<path d="M1266 114 c-19 -19 -20 -35 -3 -58 16 -22 56 -14 58 12 4 55 -23 78
-55 46z m42 -31 c-2 -17 -9 -28 -18 -28 -9 0 -16 11 -18 28 -3 22 1 27 18 27
17 0 21 -5 18 -27z"/>
<path d="M1177 113 c-4 -3 -7 -17 -7 -29 0 -24 31 -49 45 -36 4 4 6 0 3 -8 -3
-8 -13 -14 -23 -13 -13 1 -14 -2 -6 -10 22 -22 46 6 49 57 3 45 2 46 -26 46
-16 0 -32 -3 -35 -7z m46 -15 c6 -19 -3 -38 -18 -38 -18 0 -28 17 -21 35 7 18
33 20 39 3z"/>
</g>
</svg>
